<?xml version="1.0" encoding="UTF-8"?>
<svg xmlns="http://www.w3.org/2000/svg" width="86" height="100" version="1.1" viewBox="0 0 86 100">
  <defs>
    <style>
      .cls-1 {
        fill: #ffe600;
      }

      .cls-2 {
        fill: #2e2e38;
      }
    </style>
  </defs>
  <!-- Generator: Adobe Illustrator 28.7.0, SVG Export Plug-In . SVG Version: 1.2.0 Build 136)  -->
  <g>
    <g id="Layer_1">
      <g id="Layer_1-2" data-name="Layer_1">
        <g id="Artwork">
          <g>
            <polygon class="cls-1" points="75.4 3.1 18.6 23.8 75.4 13.8 75.4 3.1"/>
            <path class="cls-2" d="M27.7,49.8h10.4v-6h-10.4v-4.7h11.5l-3.8-6.6h-16.3v28.8h23v-6.6h-14.4v-4.7h0v-.2ZM57.4,32.4l-4.9,9.4-4.9-9.4h-9.5l10,17.4v11.4h8.6v-11.4l10.1-17.4h-9.4,0ZM67,93.4v.6h-3.9c0,.9.7,1.3,1.4,1.3s.8,0,1.1-.4l1.1,1c-.6.7-1.5,1-2.3,1-1.9,0-2.9-1.4-2.9-3.3s1.3-3.3,2.8-3.3,2.7,1.5,2.7,3.3h0v-.2ZM63.1,92.7h2.3c0-.7-.5-1.2-1.2-1.2s-1.1.7-1.1,1.2h0ZM86,93.4v.6h-3.9c0,.9.7,1.3,1.4,1.3s.8,0,1.1-.4l1.1,1c-.6.7-1.5,1-2.3,1-1.9,0-2.9-1.4-2.9-3.3s1.3-3.3,2.8-3.3,2.7,1.5,2.7,3.3h0v-.2ZM82.2,92.7h2.3c0-.7-.5-1.2-1.2-1.2s-1.1.7-1.1,1.2h0ZM78.9,94.3l1.1,1c-.5.7-1.3,1.4-2.5,1.4s-3-1.4-3-3.3,1.1-3.3,3-3.3,1.9.5,2.5,1.4l-1.1,1.1c-.4-.5-.8-.9-1.4-.9s-1.3.7-1.3,1.7.4,1.7,1.3,1.7,1.1-.3,1.5-.8h0ZM64.3,83.8h-1.6v-.4c-.4.4-.9.6-1.5.6-1.6,0-2.3-1.2-2.3-2.9v-3.6h1.6v3.5c0,.9.2,1.5,1.1,1.5s1.1-.7,1.1-1.5v-3.5h1.6v6.4h0ZM69.3,81.9l-.2,1.6c-.3.3-.9.4-1.3.4-1,0-1.7-.7-1.7-1.9v-3.1h-.9v-1.5h.9v-1.7l1.6-.8v2.5h1.5v1.5h-1.5v2.7c0,.6.2.8.6.8s.8-.2,1.1-.4h0ZM45.1,83.8h-1.6v-3.5c0-.9-.2-1.5-1.1-1.5s-1.1.6-1.1,1.5v3.5h-1.6v-8l1.6-.8v2.9c.4-.4.8-.6,1.5-.6,1.7,0,2.3,1.3,2.3,2.9v3.6h0ZM73.5,96.6h-1.6v-3.5c0-.9-.2-1.5-1.1-1.5s-1.1.5-1.1,1.4v3.5h-1.6v-6.4h1.6v.4c.3-.3.8-.6,1.5-.6,1.7,0,2.3,1.3,2.3,2.9v3.6h0v.2ZM52.9,89.7c.5,0,.9-.4.9-.9s-.4-.9-.9-.9-.9.4-.9.9.4.9.9.9ZM11,89.7c.5,0,.9-.4.9-.9s-.4-.9-.9-.9-.9.4-.9.9.4.9.9.9ZM86,80.6v.6h-3.9c0,.9.7,1.3,1.4,1.3s.8,0,1.1-.4l1.1,1c-.6.7-1.5,1-2.3,1-1.9,0-2.9-1.4-2.9-3.3s1.3-3.3,2.8-3.3,2.7,1.5,2.7,3.3h0v-.2ZM82.2,79.9h2.3c0-.7-.5-1.2-1.2-1.2s-1.1.7-1.1,1.2h0ZM75.3,83.8h-1.6v-.4c-.4.4-.9.6-1.5.6-1.6,0-2.3-1.2-2.3-2.9v-3.6h1.6v3.5c0,.9.2,1.5,1.1,1.5s1.1-.7,1.1-1.5v-3.5h1.6v6.4h0ZM51.4,80.6v.6h-3.9c0,.9.7,1.3,1.4,1.3s.8,0,1.1-.4l1.1,1c-.6.7-1.5,1-2.3,1-1.9,0-2.9-1.4-2.9-3.3s1.3-3.3,2.8-3.3,2.7,1.5,2.7,3.3h0v-.2ZM47.6,79.9h2.3c0-.7-.5-1.2-1.2-1.2s-1.1.7-1.1,1.2h0ZM60.5,96.6h-1.6v-.4c-.5.4-.9.6-1.4.6-1.8,0-2.6-1.6-2.6-3.4s.9-3.3,2.6-3.3,1.1,0,1.5.5v-2l1.6-.8v8.8h0ZM58.8,94.6v-2.4c-.4-.4-.7-.6-1.1-.6-1,0-1.2.8-1.2,1.7s.3,1.9,1.2,1.9.8-.2,1.1-.6h0ZM52.1,90.2v6.4h1.6v-6.4h-1.6ZM51.1,88v1.3c-.2,0-.6,0-.8,0-.5,0-.7,0-.7.6v.5h1.4v1.5h-1.4v4.8h-1.6v-4.8h-.9v-1.5h.9v-.8c0-1.2.7-1.7,1.9-1.7s.9,0,1.2.2h0ZM46.3,96.6h-1.6v-3.5c0-.9-.2-1.5-1.1-1.5s-1.1.5-1.1,1.4v3.5h-1.6v-6.4h1.6v.4c.3-.3.8-.6,1.5-.6,1.7,0,2.3,1.3,2.3,2.9v3.6h0v.2ZM36.9,90.1c-1.8,0-3,1.4-3,3.3s1.3,3.3,3,3.3,3-1.3,3-3.3-1.1-3.3-3-3.3ZM36.9,95.1c-1.1,0-1.3-1-1.3-1.7s.4-1.7,1.3-1.7,1.3.8,1.3,1.7-.2,1.7-1.3,1.7ZM32.3,94.3l1.1,1c-.5.7-1.3,1.4-2.5,1.4s-3-1.4-3-3.3,1.1-3.3,3-3.3,1.9.5,2.5,1.4l-1.1,1.1c-.4-.5-.8-.9-1.4-.9s-1.3.7-1.3,1.7.4,1.7,1.3,1.7,1.1-.3,1.5-.8h-.1ZM23.8,96.6h-1.6v-3.5c0-.9-.2-1.5-1.1-1.5s-1.1.5-1.1,1.4v3.5h-1.6v-8l1.6-.8v2.9c.3-.4,1-.6,1.6-.6,1.7,0,2.3,1.3,2.3,2.9v3.6h0ZM17.3,94.7l-.2,1.7c-.3.3-1.1.4-1.6.4-1,0-1.7-.8-1.7-1.9v-3.1h-1.1v-1.5h1.1v-1.7l1.6-.8v2.5h1.9v1.5h-1.9v2.6c0,.6.2.8.6.8s1-.2,1.3-.5h0ZM10.1,90.2v6.4h1.6v-6.4h-1.6ZM9.3,90.2l-2,6.4h-1.5l-1.1-3.9-1.1,3.9h-1.5L.1,90.2h1.8l1,3.7,1.1-3.7h1.5l1.1,3.7,1-3.7h1.8-.1ZM58.6,75.2v1.3c-.4,0-.6,0-.8,0-.6,0-.7.2-.7.5v.6h1.1v1.5h-1.1v4.8h-1.6v-4.8h-.8v-1.5h.8v-.8c0-1.1.6-1.7,1.9-1.7s.8,0,1.2.2h0ZM39.1,81.9l-.2,1.6c-.3.3-.9.4-1.3.4-1,0-1.7-.7-1.7-1.9v-3.1h-1.1v-1.5h1.1v-1.7l1.6-.8v2.5h1.5v1.5h-1.5v2.7c0,.6.2.8.6.8s.8-.2,1-.4h0ZM31.7,80.6v.6h-3.7c0,.9.7,1.3,1.4,1.3s.8,0,1.1-.4l1.1,1c-.5.7-1.5,1-2.3,1-1.8,0-2.9-1.4-2.9-3.3s1.2-3.3,2.8-3.3,2.5,1.6,2.5,3.3h0v-.2ZM28,79.9h2.3c0-.7-.5-1.2-1.2-1.2s-1.1.7-1.1,1.2ZM25.5,80.6c0,1.6-.7,3.3-2.5,3.3s-1.1-.3-1.4-.5v1.9l-1.6.8v-8.7h1.6v.4c.4-.4.8-.6,1.4-.6,1.7,0,2.5,1.6,2.5,3.3h0ZM23.9,80.7c0-.9-.2-1.9-1.2-1.9s-.8.2-1.1.6v2.4c.3.4.7.6,1.1.6.9,0,1.1-.8,1.1-1.7h.1ZM19,83.8h-1.6v-.4c-.4.4-.9.6-1.5.6-1.3,0-2.2-.8-2.2-2.2s1-2.1,2.5-2.1.8,0,1.2.3v-.3c0-.6-.4-.8-1.1-.8s-1,0-1.5.4l-.6-1.1c.7-.4,1.3-.6,2.2-.6,1.6,0,2.6.8,2.6,2.2v4.3h0v-.3ZM17.4,81.9v-.8c-.3-.2-.7-.3-1.1-.3-.7,0-1,.3-1,.8s.3.9.9.9.8,0,1.2-.6h0ZM12.8,83.8h-1.6v-3.5c0-.9-.2-1.5-1.1-1.5s-1.1.6-1.1,1.5v3.5h-1.6v-8l1.6-.8v2.9c.4-.4.8-.6,1.5-.6,1.7,0,2.3,1.3,2.3,2.9v3.6h0ZM6.6,81.2c0,1.9-1.5,2.7-3.2,2.7S.8,83.5,0,82.4l1.2-1.1c.6.7,1.3,1,2.2,1s1.5-.4,1.5-1,0-.5-.5-.7c-.3,0-.7-.2-1.4-.4-.4,0-1.4-.3-1.9-.8-.6-.5-.7-1.1-.7-1.7,0-1.8,1.5-2.5,3-2.5s2.2.5,3,1.3l-1.2,1.2c-.6-.6-1.1-.9-1.9-.9s-1.2.2-1.2.8,0,.4.4.6c.3.2.7.3,1.4.4.8.2,1.5.4,2.1.8.5.4.8,1,.8,1.8h-.2ZM80.6,77.7l-.6,1.6c-.2-.2-.5-.4-.9-.4-.8,0-.9.6-.9,1.4v3.5h-1.6v-6.4h1.6v.4c.4-.4.8-.6,1.3-.6s.8,0,1.2.4h0Z"/>
          </g>
        </g>
      </g>
    </g>
  </g>
</svg>